# xmcd
#
# Track frame offsets: 
#        150
#        35273
#        54076
#        71412
#        74443
#        111672
#        144423
#        168432
#        172046
#        196027
#        202243
#        222917
#        260647
#        263511
#        289844
#        291316
#        316542
#
# Disc length: 4449 seconds
#
# Revision: 15
# Processed by: cddbd v1.5.2PL0 Copyright (c) Steve Scherf et al.
# Submitted via: ExactAudioCopyFreeDBPlugin 1.0
#
DISCID=09115f11
DTITLE=Jazzanova - In Between
DYEAR=2002
DGENRE=Nu-jazz
TTITLE0=L.O.V.E. And You and I (feat. David Friedmann, Paul Kleber)
TTITLE1=No Use (feat. Clara Hill)
TTITLE2=The One-Tet (feat. Capital A)
TTITLE3=Fade Out
TTITLE4=Hanazono
TTITLE5=Mwela, Mwela (Here I Am)  (feat. Valerie Etienne, Rob Gallaghe
TTITLE5=r)
TTITLE6=Keep Falling (feat. Ursula Rucker, Hawkeye Phanatic)
TTITLE7=Cyclic
TTITLE8=Another New Day
TTITLE9=Place In Between
TTITLE10=Soon (feat. Vikter Duplaix)
TTITLE11=Dance The Dance (feat. Doug Hammond)
TTITLE12=Sub-Atlantic
TTITLE13=Glow And Glare
TTITLE14=E-Ovation
TTITLE15=Takes You Back (Unexpected Dub) (feat. Desney Bailey)
TTITLE16=Wasted Time (feat. Vikter Duplaix)
EXTD=
EXTT0=
EXTT1=
EXTT2=
EXTT3=
EXTT4=
EXTT5=
EXTT6=
EXTT7=
EXTT8=
EXTT9=
EXTT10=
EXTT11=
EXTT12=
EXTT13=
EXTT14=
EXTT15=
EXTT16=
PLAYORDER=
